<svg xmlns="http://www.w3.org/2000/svg" width="125" height="45" viewBox="0 0 125 45"><style>.a{stroke-linejoin:round;stroke:#95ada0}</style><title>coding</title><g stroke-width="2" fill="none"><path d="M.5 37.5h124" stroke="#FFF"/><path d="M20 18.1c1.5 1.7 4.2.2 2.4-3.2-2.7-5-13.6 7.3-7.4 11.5 6.1 4.2 15.4-8.3 18.7-8.3" class="a"/><path d="M38.2 17.1c-5.8-1-10.8 7.4-3.4 8 8.4.6 9.1-7 3.4-8zm14.8.3c-8.2 2.1-11.2 9.1-8.2 10.4 2.9 1.3 8.8-5.1 10.8-7.7" class="a"/><path d="M56.6 1.1c-3.4 0-3.2 12.5-3.4 15.7-.1 3.5 0 9.3 4.6 10.6M63.9 16s-.8 10.4 2.8 10.4M66.3 8c2.3 0 3.4 1.5 3.4 3m3.4 5.2c0 2.5 1.3 10.5 3.5 9.4 3.4-1.7 5.5-12 5.5-6.8 0 1.7 0 7.1 3.5 7.1M99 19.6C88.6 8 85.7 30.8 98.3 21.1c1.3 1.4 6.6 13.3 6.6 19.5 0 6.2-25.5 3.3-10.1-5.4" class="a"/></g></svg>