<svg xmlns="http://www.w3.org/2000/svg" width="125" height="52" viewBox="0 0 125 52"><style>.a{stroke-linejoin:round;stroke:#95ada0}</style><title>design</title><g stroke-width="2" fill="none"><path d="M.5 40.5h124" stroke="#FFF"/><path d="M38 22.3c-.9-8.5-15.9.1-15.9 4.2 0 6.3 12.1 1.9 14.3-3.3m1.3-22.1c-1.4 8.5-.6 25.4 3.1 27.3m4.6-2.5c3.2.4 9.3-2.5 8.8-7.4-.3-3.4-9.8 2.1-8.1 7.4 1.7 5.2 8.1 2.6 9.8 1.2m12.8-7.6c2 .6 3.2.6.6-1.5-2.6-2-11.2 0-9 2.5 1.3 1.6 11.3 1.2 13.8 2.7 2.6 1.5-9.2 7.8-12.3 7.8-1 0 1.8-2.5 2.4-2.9M77.7 18c-1 4.4-.6 6.3.5 10.6m-.3-20c.8-1.4 1.7-.6 1.5 1.1" class="a"/><path d="M93 20.3c-1.3-3.9-18 2.5-11.4 8.1 2.2 1.9 9.4 0 8.7-8.5-.4 8.5 4.9 29.8-1 30.8-5.9 1.1-18.7-6-6.2-14M99 19c.2 2.1.3 4.2.8 6.2 1.2 5.1 4.3-6.7 6.1-6.1 1.1.4 1.1 8.2 2.9 10.5" class="a"/></g></svg>