<svg xmlns="http://www.w3.org/2000/svg" width="333" height="60" viewBox="0 0 333 60"><style>.a{stroke-linejoin:round;stroke:#95ada0}</style><title>Dmitry Ovchinnikov</title><g stroke-width="2" fill="none"><path d="M.5 43h332" stroke="#FFF"/><g class="a"><path d="M148.5 15c-2.9 4.1-4.5 14.8 4.3 15.3 8.8.6 9.5-13.1 2.6-13.4-6.9-.2-8.8 7-8.8 7m20.1-22.7c-1.1 6.8 2.5 27.8 2.5 33.1"/><path d="M163.9 3.1c1.4.7 10.9 1.4 13.5 2.8 6.8 3.5-6.9 14.2-11.3 16.7m-.2-.4c1.5-.5 16.6-3 16.6.9 0 5.6-13.5 9.7-16.1 10.8"/><path d="M196.8 1.3c-5.2 14-15.6 23.5-13.9 24.4 2 1 6.9-1.4 16.7-1.4m-2.2-11.9c-.7 7 0 14.2-.7 21.5m6.6-14.3c0 3.5-1.3 15 4.5 14.3 5.8-.7 4.8-8.7 5.4-10.8.6 5.1-.5 7.7.8 12.7m8.3-26.9c-.9 8.3-1.2 16.2 0 24.1m10-28.1c-1.5 10.4-1.9 19.1-.8 29.4m-13.9-12.2c5.4 1.9 13.4-.8 14.4.6M241 6c-1.9 7.3-1.4 21.4-1.1 25.4m8.9-25.5c-1.7 7.2-1.3 19.8-1.1 27.1m-11.6-9.3c6.5 1 2.3.5 12.5.9m6.7-3.8c-.2 1.8-.7 10.2 2.1 9.6 2.9-.6 6.4-8 6.7-10.2 0 2.6 0 10.3 2.3 10.6m8-21.4c.5 1.6-.4 19.6 1.2 23.2"/><path d="M287.7 11.4c0 6.6-9.2 13.8-13 13.8 3.4 3.6 14.3 5.5 14.3 5.5m4.7-6.9c.2 1.9 1 4.5 2.9 5.8 3.4 2.1 6.9-2.9 4.7-5.4-4-4.6-9.5 0-10.3 1.4m18.7-17.5c-.2 8.7.5 15.4 3.3 23.5"/><path d="M307.4 8.6c1.9-.6 12.9-2.1 12.9 2.7 0 4.8-9.7 8.5-12.1 9.4m.2 0c1.9-.3 14.2-.4 14.4 2.8.2 3.1-8.2 7.1-11.7 8.7"/></g><path d="M18.8 3.4c1.1 9.6-1 20.2 1 29.6M10.7 3.9c-.9-.4-2.2-.4-2.6-1.2-.3-.7 7.4-.8 10.5-.8 5.6.1 16 3 16 14.5s-19.2 17-27.4 16M36 20.1c.1 1.3.9 6.7 1.9 8.8 1.1 2.1 3.4-5.4 4-6.8 1.2-2.6 1.5 6.8 3.7 6.8 2.7 0 3.6-7.7 4.2-7.7.7 0 1.3 6.6 4.4 10.9m5-11.5c-1 5.1-.5 11.3 2.5 11.3M56 9c2.1.7 2.6 1.9 2.6 1.9m8.8 3.6c5.8-2.7 9.9-3.8 16.4-3.9M76 1.1c-.6 25 1 29.8 3.2 30.6m8.6-12.4c.9 7.4 3.1 13.4 3.1 13.4s-1.4-2.4-.9-4.6c.4-2.1 2.4-11.3 4.9-8.8m3.9 3c8.3 12.5 11.2-3 11.2-3m0-.1c-3.2 12.5-11.8 35-10.3 39.7" class="a"/></g></svg>