<svg xmlns="http://www.w3.org/2000/svg" width="333" height="63" viewBox="0 0 333 63"><style>path{stroke-linejoin:round;stroke:#95ada0;stroke-width:2;fill:none}</style><title>Dmitry Ovchinnikov</title><path d="M.5 46h332" stroke="#FFF"/><path d="M18.8 6.4c1.1 9.6-1 20.2 1 29.6M10.7 6.9c-.9-.4-2.2-.4-2.6-1.2-.3-.7 7.4-.8 10.5-.8 5.6.1 16 3 16 14.5s-19.2 17-27.4 16M36 23.1c.1 1.3.9 6.7 1.9 8.8 1.1 2.1 3.4-5.4 4-6.8 1.2-2.6 1.5 6.8 3.7 6.8 2.7 0 3.6-7.7 4.2-7.7.7 0 1.3 6.6 4.4 10.9m5-11.5c-1 5.1-.5 11.3 2.5 11.3M56 12c2.1.7 2.6 1.9 2.6 1.9m8.8 3.6c5.8-2.7 9.9-3.8 16.4-3.9M76 4.1c-.6 25 1 29.8 3.2 30.6m8.6-12.4c.9 7.4 3.1 13.4 3.1 13.4s-1.4-2.4-.9-4.6c.4-2.1 2.4-11.3 4.9-8.8m3.9 3c8.3 12.5 11.2-3 11.2-3m0-.1c-3.2 12.5-11.8 35-10.3 39.7m42.5-41c-2.2 4.1-2.3 14.2 2.1 15.9 14.6 5.6 16.1-22.5 7.3-26.2C138 5 128.1 20.9 131.8 23.2m30.6 3.4c.6 1 6.1 13 7.3 10.1.3-.9 2.1-7.6 5-12.9m13.7 3.6c-.9-.4-1.9-3.1-3-2.8-3.1.9-6.9 8.5-3.7 10.8 4.3 3.2 8.4-2.5 10.4-2.5m.5-25.4c1.3 1.8.4 25.2 5 27 1.4.6 3.9-7 6.3-9.1 2.1-1.9-.7 6.4 2.2 8.3m8.2-10.2c-1.2 6.5-.7 9.4 1.7 12.2m-.5-22.3c1.3 0 1.3 1.5 1.3 1.5m5.1 10c1.1 1 .4 8 1.6 8.7 2.8 1.7 4.1-5.5 6.9-7.9 2.8-2.4-.2 10.1 3.1 9.6m5.2-10.1c.4 2.7.6 7.3 2 7.8 1.8.6 4.9-6.5 6.3-7.3 1.7-1-.8 5.7 1.8 9m7.6-9.4c.8 3.1.1 6.7 2.2 8.7m1.6-20.3c1.1.4.4 2.7.4 2.7m7.8-15.2c.4.4 1 1.8.8 6.3-.3 7.6.2 27 .2 30.3"/><path d="M280 22.1c-1.2-.1-7.9 5.1-11.7 5.5-3.9.5-1.1 7.7 14.6 3.6m3.6-4.4c-1 2.9-1.8 7.1 1.4 8 5.9 1.5 10.8-7.6 6.8-9.8-4-2.2-6.8 2-6.8 2m14.7-4.6c0 1.8 1.9 15.1 3.9 13.8 2-1.2 7.4-14.7 11.3-18.4"/></svg>