<svg xmlns="http://www.w3.org/2000/svg" width="125" height="47" viewBox="0 0 125 47"><style>.a{stroke-linejoin:round;stroke:#95ada0}</style><title>email</title><g stroke-width="2" fill="none"><path d="M.5 45.5h124" stroke="#FFF"/><path d="M23.3 26.9c14.6 1.8 18.6-12.6 7.2-9.3-11.3 3.3-14.6 22.3 12.7 13.3m2.7-7.7c1.1 3.2 1 4.9 1.8 6 1.4 2.4 1.8-2.1 3.7-3.8 1.9-1.7 2.4 4.6 4.1 6.1 1.7 1.6 3.6-5.9 5.7-7.5 2.1-1.6 1.2 10.5 4.7 10.5m11.1-8c1.4-7.6-14.1 1.8-8.3 6.1 3 2.2 8.3-3.2 10-6.7 1.1-2-4.2 9.7.5 11m6.1-11.1c-1.2 3.5-.9 7.8 1 10m.3-24.2c1 0 1.7 1.7 1.7 1.7m7.5-12.1C96.9 3.9 89 47.1 99 37.6" class="a"/></g></svg>