<svg width="125" height="39" viewBox="0 0 125 39" xmlns="http://www.w3.org/2000/svg"><title>here2</title><g stroke-width="2" fill="none" fill-rule="evenodd"><path d="M.5 37.5h124.016" stroke="#FFF"/><path d="M36.209 1.202c0 5.766 1.042 20.099 1.966 24.209 2.5 11.11 4.383-10.374 8.616-8.52 1.153.506.37 11.396 4.605 12.985m2.727-2.577c3.938-1.845 7.788-4.918 7.788-7.86 0-3.277-8.137.68-8.724 6.015-.587 5.336 7.658 4.721 11.074 1.845m6.178-8.381c0 2.788 1.98 6.188 1.457 8.518-.822 3.67-4.583 3.008-3.59-.922 1.137-4.49 5.94-18.157 9.066-11.48m2.508 9.285c3.265 0 7.996-1.91 9.878-4.633 2.768-4.005-4.866-4.347-7.876-1.734-2.863 2.486-3.604 8.188 1.263 9.55C87.744 28.79 93.76 25.57 93.76 25.57" stroke="#95ADA0" stroke-linecap="round" stroke-linejoin="round"/></g></svg>