<svg width="125" height="38" viewBox="0 0 125 38" xmlns="http://www.w3.org/2000/svg"><title>here3</title><g stroke-width="2" fill="none" fill-rule="evenodd"><path d="M.5 36.5h124.016" stroke="#FFF"/><path d="M28.032 1.023c.753 3.715 2.8 22.3 4.984 25.68 1.256 1.942 2.757-8.962 4.463-11.799 3.335-5.544 3.313 10.998 6.76 11.71m2.057-3.737c3.83.377 9.107-4.697 8.87-6.534-.834-6.49-15.273 2.547-7.267 8.406 4.561 3.339 9.917.455 11.893-1.226m2.86-7.416c1.843 3.044 5.462 6.458 4.246 10.405-.254.824-1.753-.065-2.513-1.546-1.238-2.41 5.628-19.638 9.077-11.84m.238 9.642c1.373-.348 8.862-2.851 9.858-4.636 2.753-4.932-4.825-5.873-7.691-2.764-6.824 7.4 3.474 15.754 10.92 8.989" stroke="#95ADA0" stroke-linecap="round" stroke-linejoin="round"/></g></svg>