<svg width="125" height="42" viewBox="0 0 125 42" xmlns="http://www.w3.org/2000/svg"><title>here1</title><g stroke-width="2" fill="none" fill-rule="evenodd"><path d="M.5 40.5h124.016" stroke="#FFF"/><path d="M21.036 1.036c-.769 8.641-1.414 28.906 0 29.69 2.623 1.452 4.756-9.271 6.377-9.904 3.176-1.24 3.362 8.946 6.082 7.857m2.915-.805c1.893-1.393 9.575-6.895 6.527-8.054-3.895-1.48-8.876 5.355-7.05 8.054 1.828 2.7 7.702 2.808 12.924-1.393m7.629-7.807c.377 1.023.993 1.988 1.13 3.07 2.052 16.067-4.6-.853-1.348-4.528 2.463-2.783 6.85-1.242 9.681-.305m3.947 8.177c2.786-.199 6.586-2.794 8.318-4.658 1.314-1.415 1.638-3.94 0-3.94-6.1 0-9.755 9.23-3.228 10.666 4.841 1.065 7.81-1.154 9.855-3.592" stroke="#95ADA0" stroke-linecap="round" stroke-linejoin="round"/></g></svg>