<svg xmlns="http://www.w3.org/2000/svg" width="125" height="44" viewBox="0 0 125 44"><style>.a{stroke-linejoin:round;stroke:#95ada0}</style><title>web tech</title><g stroke-width="2" fill="none"><path d="M.5 42.5h124" stroke="#FFF"/><path d="M70.2 1c-.5 6.1-.9 14.8 1.1 26.5M58.2 14.9c4.9 1.3 18.6-3.3 22.2-2.6m-.1 11c17.7-8.3 6.2-9.9 1-6.8-5.2 3-7.7 14 7.8 9.5m15.4-9.7c-3.6-11.1-26.9 27.2 2.1 5.7m5.3-21c.2 8.6-2.7 17.3-2.7 26.7 0 9.5 6.2-7.6 9.5-8.9 2-.9-.9 7.8 2.2 12.1M1.1 14.9c.8 2.4 4.2 13.2 6.9 12.7 2-.3 2.2-8.9 3-9.2.5.9 1.6 11.5 4.1 12.5.7.3 3.6-10.7 4.8-16.3m3.5 10.8c3.3-.3 13.7-5.5 9.7-7.4-4-1.8-8.7 4.3-8.5 6.8.3 2.4 2.3 6.2 10.3 1.9m4.2-25.5c-.8 6.8-.3 24.3-.2 25.2.7 6.5 12.9-1.2 13-6.1.2-7.5-10.8-1.5-12.8 5.3" class="a"/></g></svg>