<svg width="512" height="512" viewBox="0 0 512 512" xmlns="http://www.w3.org/2000/svg"><title>avatar</title><g fill="none" fill-rule="evenodd"><path fill="#FFF" d="M0 0h512v512H0z"/><path d="M167.99 178.51c0-19.74-16.242-35.97-35.995-35.97-19.753 0-35.995 16.23-35.995 35.97s16.242 35.97 35.995 35.97c19.753 0 35.995-16.23 35.995-35.97zm0 156.165c0-19.74-16.242-36.41-35.995-36.41-19.753 0-35.995 16.67-35.995 36.41 0 19.302 16.242 35.97 35.995 35.97 19.753 0 35.995-16.668 35.995-35.97zM214.618 415h68.77C374.255 415 448 341.304 448 250.5S374.254 86 283.389 86h-68.771v329z" fill="#95ADA0"/></g></svg>