<svg xmlns="http://www.w3.org/2000/svg" width="125" height="45" viewBox="0 0 125 45"><style>.a{stroke-linejoin:round;stroke:#95ADA0;}</style><title>  coding</title><desc>  Created with Sketch.</desc><g fill="none"><g stroke-width="2"><path d="M0.5 37.5L124.5 37.5" stroke="#FFF"/><path d="M20 18.1C21.5 19.8 24.2 18.3 22.4 14.9 19.7 9.9 8.8 22.2 15 26.4 21.1 30.6 30.4 18.1 33.7 18.1" class="a"/><path d="M38.2 17.1C32.4 16.1 27.4 24.5 34.8 25.1 43.2 25.7 43.9 18.1 38.2 17.1Z" class="a"/><path d="M53 17.4C44.8 19.5 41.8 26.5 44.8 27.8 47.7 29.1 53.6 22.7 55.6 20.1" class="a"/><path d="M56.6 1.1C53.2 1.1 53.4 13.6 53.2 16.8 53.1 20.3 53.2 26.1 57.8 27.4" class="a"/><path d="M63.9 16C63.9 16 63.1 26.4 66.7 26.4" class="a"/><path d="M66.3 8C68.6 8 69.7 9.5 69.7 11" class="a"/><path d="M73.1 16.2C73.1 18.7 74.4 26.7 76.6 25.6 80 23.9 82.1 13.6 82.1 18.8 82.1 20.5 82.1 25.9 85.6 25.9" class="a"/><path d="M99 19.6C88.6 8 85.7 30.8 98.3 21.1 99.6 22.5 104.9 34.4 104.9 40.6 104.9 46.8 79.4 43.9 94.8 35.2" class="a"/></g></g></svg>