<svg xmlns="http://www.w3.org/2000/svg" width="125" height="52" viewBox="0 0 125 52"><style>.a{stroke-linejoin:round;stroke:#95ADA0;}</style><title>  design</title><desc>  Created with Sketch.</desc><g fill="none"><g stroke-width="2"><path d="M0.5 40.5L124.5 40.5" stroke="#FFF"/><path d="M38 22.3C37.1 13.8 22.1 22.4 22.1 26.5 22.1 32.8 34.2 28.4 36.4 23.2" class="a"/><path d="M37.7 1.1C36.3 9.6 37.1 26.5 40.8 28.4" class="a"/><path d="M45.4 25.9C48.6 26.3 54.7 23.4 54.2 18.5 53.9 15.1 44.4 20.6 46.1 25.9 47.8 31.1 54.2 28.5 55.9 27.1" class="a"/><path d="M68.7 19.5C70.7 20.1 71.9 20.1 69.3 18 66.7 16 58.1 18 60.3 20.5 61.6 22.1 71.6 21.7 74.1 23.2 76.7 24.7 64.9 31 61.8 31 60.8 31 63.6 28.5 64.2 28.1" class="a"/><path d="M77.7 18C76.7 22.4 77.1 24.3 78.2 28.6" class="a"/><path d="M77.9 8.6C78.7 7.2 79.6 8 79.4 9.7" class="a"/><path d="M93 20.3C91.7 16.4 75 22.8 81.6 28.4 83.8 30.3 91 28.4 90.3 19.9 89.9 28.4 95.2 49.7 89.3 50.7 83.4 51.8 70.6 44.7 83.1 36.7" class="a"/><path d="M99 19C99.2 21.1 99.3 23.2 99.8 25.2 101 30.3 104.1 18.5 105.9 19.1 107 19.5 107 27.3 108.8 29.6" class="a"/></g></g></svg>