<svg xmlns="http://www.w3.org/2000/svg" width="333" height="60" viewBox="0 0 333 60"><style>.a{stroke-linejoin:round;stroke:#95ADA0;}</style><title>  Dmitry Ovchinnikov</title><desc>  Created with Sketch.</desc><g fill="none"><g stroke-width="2"><path d="M0.5 43L332.5 43" stroke="#FFF"/><g class="a"><path d="M148.5 15C145.6 19.1 144 29.8 152.8 30.3 161.6 30.9 162.3 17.2 155.4 16.9 148.5 16.7 146.6 23.9 146.6 23.9"/><path d="M166.7 1.2C165.6 8 169.2 29 169.2 34.3"/><path d="M163.9 3.1C165.3 3.8 174.8 4.5 177.4 5.9 184.2 9.4 170.5 20.1 166.1 22.6M165.9 22.2C167.4 21.7 182.5 19.2 182.5 23.1 182.5 28.7 169 32.8 166.4 33.9"/><path d="M196.8 1.3C191.6 15.3 181.2 24.8 182.9 25.7 184.9 26.7 189.8 24.3 199.6 24.3"/><path d="M197.4 12.4C196.7 19.4 197.4 26.6 196.7 33.9"/><path d="M203.3 19.6C203.3 23.1 202 34.6 207.8 33.9 213.6 33.2 212.6 25.2 213.2 23.1 213.8 28.2 212.7 30.8 214 35.8"/><path d="M222.3 8.9C221.4 17.2 221.1 25.1 222.3 33"/><path d="M232.3 4.9C230.8 15.3 230.4 24 231.5 34.3"/><path d="M217.6 22.1C223 24 231 21.3 232 22.7"/><path d="M241 6C239.1 13.3 239.6 27.4 239.9 31.4"/><path d="M248.8 5.9C247.1 13.1 247.5 25.7 247.7 33"/><path d="M236.1 23.7C242.6 24.7 238.4 24.2 248.6 24.6"/><path d="M255.3 20.8C255.1 22.6 254.6 31 257.4 30.4 260.3 29.8 263.8 22.4 264.1 20.2 264.1 22.8 264.1 30.5 266.4 30.8"/><path d="M274.4 9.4C274.9 11 274 29 275.6 32.6"/><path d="M287.7 11.4C287.7 18 278.5 25.2 274.7 25.2 278.1 28.8 289 30.7 289 30.7"/><path d="M293.7 23.8C293.9 25.7 294.7 28.3 296.6 29.6 300 31.7 303.5 26.7 301.3 24.2 297.3 19.6 291.8 24.2 291 25.6"/><path d="M309.7 8.1C309.5 16.8 310.2 23.5 313 31.6"/><path d="M307.4 8.6C309.3 8 320.3 6.5 320.3 11.3 320.3 16.1 310.6 19.8 308.2 20.7M308.4 20.7C310.3 20.4 322.6 20.3 322.8 23.5 323 26.6 314.6 30.6 311.1 32.2"/></g><g class="a"><path d="M18.8 3.4C19.9 13 17.8 23.6 19.8 33"/><path d="M10.7 3.9C9.8 3.5 8.5 3.5 8.1 2.7 7.8 2 15.5 1.9 18.6 1.9 24.2 2 34.6 4.9 34.6 16.4 34.6 27.9 15.4 33.4 7.2 32.4"/><path d="M36 20.1C36.1 21.4 36.9 26.8 37.9 28.9 39 31 41.3 23.5 41.9 22.1 43.1 19.5 43.4 28.9 45.6 28.9 48.3 28.9 49.2 21.2 49.8 21.2 50.5 21.2 51.1 27.8 54.2 32.1"/><path d="M59.2 20.6C58.2 25.7 58.7 31.9 61.7 31.9"/><path d="M56 9C58.1 9.7 58.6 10.9 58.6 10.9"/><path d="M67.4 14.5C73.2 11.8 77.3 10.7 83.8 10.6"/><path d="M76 1.1C75.4 26.1 77 30.9 79.2 31.7"/><path d="M87.8 19.3C88.7 26.7 90.9 32.7 90.9 32.7 90.9 32.7 89.5 30.3 90 28.1 90.4 26 92.4 16.8 94.9 19.3"/><path d="M98.8 22.3C107.1 34.8 110 19.3 110 19.3"/><path d="M110 19.2C106.8 31.7 98.2 54.2 99.7 58.9"/></g></g></g></svg>