<svg xmlns="http://www.w3.org/2000/svg" width="333" height="63" viewBox="0 0 333 63">
	<style>path{stroke-linejoin:round;stroke:#95ADA0;stroke-width:2;fill:none;}</style>
	<title>  Dmitry Ovchinnikov</title>
		<path d="M0.5 46L332.5 46" stroke="#FFF"/>
		<path d="M18.8 6.4C19.9 16 17.8 26.6 19.8 36"/><path d="M10.7 6.9C9.8 6.5 8.5 6.5 8.1 5.7 7.8 5 15.5 4.9 18.6 4.9 24.2 5 34.6 7.9 34.6 19.4 34.6 30.9 15.4 36.4 7.2 35.4"/><path d="M36 23.1C36.1 24.4 36.9 29.8 37.9 31.9 39 34 41.3 26.5 41.9 25.1 43.1 22.5 43.4 31.9 45.6 31.9 48.3 31.9 49.2 24.2 49.8 24.2 50.5 24.2 51.1 30.8 54.2 35.1"/><path d="M59.2 23.6C58.2 28.7 58.7 34.9 61.7 34.9"/><path d="M56 12C58.1 12.7 58.6 13.9 58.6 13.9"/><path d="M67.4 17.5C73.2 14.8 77.3 13.7 83.8 13.6"/><path d="M76 4.1C75.4 29.1 77 33.9 79.2 34.7"/><path d="M87.8 22.3C88.7 29.7 90.9 35.7 90.9 35.7 90.9 35.7 89.5 33.3 90 31.1 90.4 29 92.4 19.8 94.9 22.3"/><path d="M98.8 25.3C107.1 37.8 110 22.3 110 22.3"/><path d="M110 22.2C106.8 34.7 98.2 57.2 99.7 61.9"/><path d="M142.2 20.9C140 25 139.9 35.1 144.3 36.8 158.9 42.4 160.4 14.3 151.6 10.6 138 5 128.1 20.9 131.8 23.2"/><path d="M162.4 26.6C163 27.6 168.5 39.6 169.7 36.7 170 35.8 171.8 29.1 174.7 23.8"/><path d="M188.4 27.4C187.5 27 186.5 24.3 185.4 24.6 182.3 25.5 178.5 33.1 181.7 35.4 186 38.6 190.1 32.9 192.1 32.9"/><path d="M192.6 7.5C193.9 9.3 193 32.7 197.6 34.5 199 35.1 201.5 27.5 203.9 25.4 206 23.5 203.2 31.8 206.1 33.7"/><path d="M214.3 23.5C213.1 30 213.6 32.9 216 35.7"/><path d="M215.5 13.4C216.8 13.4 216.8 14.9 216.8 14.9"/><path d="M221.9 24.9C223 25.9 222.3 32.9 223.5 33.6 226.3 35.3 227.6 28.1 230.4 25.7 233.2 23.3 230.2 35.8 233.5 35.3"/><path d="M238.7 25.2C239.1 27.9 239.3 32.5 240.7 33 242.5 33.6 245.6 26.5 247 25.7 248.7 24.7 246.2 31.4 248.8 34.7"/><path d="M256.4 25.3C257.2 28.4 256.5 32 258.6 34"/><path d="M260.2 13.7C261.3 14.1 260.6 16.4 260.6 16.4"/><path d="M268.4 1.2C268.8 1.6 269.4 3 269.2 7.5 268.9 15.1 269.4 34.5 269.4 37.8"/><path d="M280 22.1C278.8 22 272.1 27.2 268.3 27.6 264.4 28.1 267.2 35.3 282.9 31.2"/><path d="M286.5 26.8C285.5 29.7 284.7 33.9 287.9 34.8 293.8 36.3 298.7 27.2 294.7 25 290.7 22.8 287.9 27 287.9 27"/><path d="M302.6 22.4C302.6 24.2 304.5 37.5 306.5 36.2 308.5 35 313.9 21.5 317.8 17.8"/></svg>