<svg xmlns="http://www.w3.org/2000/svg" width="125" height="47" viewBox="0 0 125 47"><style>.a{stroke-linejoin:round;stroke:#95ADA0;}</style><title>  email</title><desc>  Created with Sketch.</desc><g fill="none"><g stroke-width="2"><path d="M0.5 45.5L124.5 45.5" stroke="#FFF"/><path d="M23.3 26.9C37.9 28.7 41.9 14.3 30.5 17.6 19.2 20.9 15.9 39.9 43.2 30.9" class="a"/><path d="M45.9 23.2C47 26.4 46.9 28.1 47.7 29.2 49.1 31.6 49.5 27.1 51.4 25.4 53.3 23.7 53.8 30 55.5 31.5 57.2 33.1 59.1 25.6 61.2 24 63.3 22.4 62.4 34.5 65.9 34.5" class="a"/><path d="M77 26.5C78.4 18.9 62.9 28.3 68.7 32.6 71.7 34.8 77 29.4 78.7 25.9 79.8 23.9 74.5 35.6 79.2 36.9" class="a"/><path d="M85.3 25.8C84.1 29.3 84.4 33.6 86.3 35.8" class="a"/><path d="M86.6 11.6C87.6 11.6 88.3 13.3 88.3 13.3" class="a"/><path d="M95.8 1.2C96.9 3.9 89 47.1 99 37.6" class="a"/></g></g></svg>