<?xml version="1.0" encoding="UTF-8" standalone="no"?>
<svg width="125px" height="39px" viewBox="0 0 125 39" version="1.1" xmlns="http://www.w3.org/2000/svg" xmlns:xlink="http://www.w3.org/1999/xlink">
    <!-- Generator: Sketch 3.6.1 (26313) - http://www.bohemiancoding.com/sketch -->
    <title>here2</title>
    <desc>Created with Sketch.</desc>
    <defs></defs>
    <g id="Page-1" stroke="none" stroke-width="1" fill="none" fill-rule="evenodd">
        <g id="Desktop-HD-pageHome" transform="translate(-358.000000, -594.000000)" stroke-width="2">
            <g id="Body" transform="translate(358.000000, 269.000000)">
                <g id="here2" transform="translate(0.000000, 326.000000)">
                    <path d="M0.5,36.5 L124.516129,36.5" id="Line" stroke="#FFFFFF"></path>
                    <path d="M36.2089844,0.201936141 C36.2089844,5.96795177 37.2507784,20.3010366 38.175293,24.4106318 C40.6747995,35.521284 42.5580028,14.0373807 46.7905274,15.8918818 C47.9438477,16.3972147 47.1606446,27.2869905 51.3955078,28.8758832" id="Path-77" stroke="#95ADA0" stroke-linecap="round" stroke-linejoin="round"></path>
                    <path d="M54.1225586,26.2989807 C58.060547,24.454467 61.911133,21.3810973 61.9111328,18.4387398 C61.9111326,15.1615225 53.774414,19.1194123 53.1870117,24.4544669 C52.5996093,29.7895215 60.8452147,29.1753394 64.2607424,26.2989807" id="Path-78" stroke="#95ADA0" stroke-linecap="round" stroke-linejoin="round"></path>
                    <path d="M70.4389649,17.9176458 C70.4389649,20.7058422 72.4189451,24.1062496 71.8964844,26.4363958 C71.0735732,30.1065352 67.3125461,29.4440745 68.3066406,25.514385 C69.4426844,21.0235652 74.2460938,7.35687858 77.3720703,14.0340693" id="Path-79" stroke="#95ADA0" stroke-linecap="round" stroke-linejoin="round"></path>
                    <path d="M79.8808594,23.3186989 C83.1445315,23.3186989 87.8764817,21.4086782 89.758301,18.6859883 C92.5263734,14.6810326 84.8916016,14.3389436 81.8823241,16.9518003 C79.0186562,19.438229 78.2782693,25.1403749 83.1445313,26.5023946 C87.7438854,27.7897093 93.7612307,24.5702105 93.7612307,24.5702105" id="Path-80" stroke="#95ADA0" stroke-linecap="round" stroke-linejoin="round"></path>
                </g>
            </g>
        </g>
    </g>
</svg>