<?xml version="1.0" encoding="UTF-8" standalone="no"?>
<svg width="125px" height="42px" viewBox="0 0 125 42" version="1.1" xmlns="http://www.w3.org/2000/svg" xmlns:xlink="http://www.w3.org/1999/xlink">
    <!-- Generator: Sketch 3.6.1 (26313) - http://www.bohemiancoding.com/sketch -->
    <title>here1</title>
    <desc>Created with Sketch.</desc>
    <defs></defs>
    <g id="Page-1" stroke="none" stroke-width="1" fill="none" fill-rule="evenodd">
        <g id="Desktop-HD-pageHome" transform="translate(-949.000000, -537.000000)" stroke-width="2">
            <g id="Body" transform="translate(358.000000, 269.000000)">
                <g id="here1" transform="translate(591.000000, 269.000000)">
                    <path d="M0.5,39.5 L124.516129,39.5" id="Line" stroke="#FFFFFF"></path>
                    <path d="M21.0361328,0.0361328125 C20.2670898,8.67724609 19.6220702,28.9418945 21.0361328,29.7250977 C23.6592299,31.1779456 25.7921353,20.4549804 27.4131451,19.8217773 C30.5894146,18.5810547 30.7753906,28.7675781 33.4946289,27.6791992" id="Path-73" stroke="#95ADA0" stroke-linecap="round" stroke-linejoin="round"></path>
                    <path d="M36.4101562,26.8740233 C38.3032227,25.4809569 45.9847748,19.9785084 42.9370115,18.8203125 C39.0424804,17.3403321 34.0605468,24.1748042 35.8876953,26.8740229 C37.7148437,29.5732417 43.5893553,29.6816401 48.811035,25.480957" id="Path-74" stroke="#95ADA0" stroke-linecap="round" stroke-linejoin="round"></path>
                    <path d="M56.4394531,17.6743164 C56.816569,18.6972656 57.4327182,19.6616953 57.5708008,20.7431641 C59.6223491,36.8109791 52.9704562,19.891174 56.222168,16.2158203 C58.684665,13.4325025 63.0711513,14.9737592 65.9033203,15.9111328" id="Path-91" stroke="#95ADA0" stroke-linecap="round" stroke-linejoin="round"></path>
                    <path d="M69.8491211,24.0878906 C72.6358892,23.8889954 76.4360859,21.2935358 78.1679688,19.4296875 C79.4821161,18.0154052 79.8060365,15.4902344 78.1679688,15.4902344 C72.0683594,15.4902344 68.4130859,24.7192383 74.9399414,26.1557622 C79.7814012,27.22134 82.7504883,25.0019531 84.7954102,22.5639648" id="Path-76" stroke="#95ADA0" stroke-linecap="round" stroke-linejoin="round"></path>
                </g>
            </g>
        </g>
    </g>
</svg>