<?xml version="1.0" encoding="UTF-8" standalone="no"?>
<svg width="125px" height="38px" viewBox="0 0 125 38" version="1.1" xmlns="http://www.w3.org/2000/svg" xmlns:xlink="http://www.w3.org/1999/xlink">
    <!-- Generator: Sketch 3.6.1 (26313) - http://www.bohemiancoding.com/sketch -->
    <title>here3</title>
    <desc>Created with Sketch.</desc>
    <defs></defs>
    <g id="Page-1" stroke="none" stroke-width="1" fill="none" fill-rule="evenodd">
        <g id="Desktop-HD-pageHome" transform="translate(-554.000000, -595.000000)" stroke-width="2">
            <g id="Body" transform="translate(358.000000, 269.000000)">
                <g id="here3" transform="translate(196.000000, 327.000000)">
                    <path d="M0.5,35.5 L124.516129,35.5" id="Line" stroke="#FFFFFF"></path>
                    <path d="M28.0320906,0.0234375 C28.7847609,3.73756489 30.8310819,22.3223382 33.0158557,25.7021484 C34.2717647,27.6450195 35.7726576,16.7414537 37.4793645,13.9042969 C40.8143544,8.36035156 40.7924744,24.9023438 44.2388087,25.6142578" id="Path-81" stroke="#95ADA0" stroke-linecap="round" stroke-linejoin="round"></path>
                    <path d="M46.2955235,21.8769527 C50.1260497,22.2543512 55.4027689,17.1800247 55.166625,15.3432616 C54.3322693,8.85351553 39.8934519,17.8901365 47.8985942,23.7490233 C52.460129,27.0875668 57.8162351,24.2043383 59.7920458,22.5234373" id="Path-82" stroke="#95ADA0" stroke-linecap="round" stroke-linejoin="round"></path>
                    <path d="M62.6519976,15.107422 C64.4947867,18.1511586 68.1136311,21.5652719 66.8981655,25.5117188 C66.644367,26.3357674 65.1451392,25.4470591 64.3848892,23.9663088 C63.147319,21.5558745 70.0134591,4.32819798 73.4621489,12.1254884" id="Path-83" stroke="#95ADA0" stroke-linecap="round" stroke-linejoin="round"></path>
                    <path d="M73.7008835,21.7680668 C75.0726749,21.420085 82.5617748,18.9165042 83.5580416,17.1318361 C86.3111279,12.2000797 78.7333563,11.2592606 75.866998,14.3676758 C69.0428864,21.768067 79.3412102,30.1220555 86.7860628,23.3569338" id="Path-84" stroke="#95ADA0" stroke-linecap="round" stroke-linejoin="round"></path>
                </g>
            </g>
        </g>
    </g>
</svg>