<svg xmlns="http://www.w3.org/2000/svg" width="125" height="44" viewBox="0 0 125 44"><style>.a{stroke-linejoin:round;stroke:#95ADA0;}</style><title>  web tech</title><desc>  Created with Sketch.</desc><g fill="none"><g stroke-width="2"><path d="M0.5 42.5L124.5 42.5" stroke="#FFF"/><g class="a"><path d="M70.2 1C69.7 7.1 69.3 15.8 71.3 27.5"/><path d="M58.2 14.9C63.1 16.2 76.8 11.6 80.4 12.3"/><path d="M80.3 23.3C98 15 86.5 13.4 81.3 16.5 76.1 19.5 73.6 30.5 89.1 26"/><path d="M104.5 16.3C100.9 5.2 77.6 43.5 106.6 22"/><path d="M111.9 1C112.1 9.6 109.2 18.3 109.2 27.7 109.2 37.2 115.4 20.1 118.7 18.8 120.7 17.9 117.8 26.6 120.9 30.9"/></g><g class="a"><path d="M1.1 14.9C1.9 17.3 5.3 28.1 8 27.6 10 27.3 10.2 18.7 11 18.4 11.5 19.3 12.6 29.9 15.1 30.9 15.8 31.2 18.7 20.2 19.9 14.6"/><path d="M23.4 25.4C26.7 25.1 37.1 19.9 33.1 18 29.1 16.2 24.4 22.3 24.6 24.8 24.9 27.2 26.9 31 34.9 26.7"/><path d="M39.1 1.2C38.3 8 38.8 25.5 38.9 26.4 39.6 32.9 51.8 25.2 51.9 20.3 52.1 12.8 41.1 18.8 39.1 25.6"/></g></g></g></svg>